<svg width="997" height="1024" viewBox="0 0 997 1024" fill="none" xmlns="http://www.w3.org/2000/svg">
<g clip-path="url(#clip0_15073_377580)">
<path opacity="0.08" d="M890.251 -188.751C890.251 -188.751 921.349 -148.932 982.51 -70.6207C1043.67 7.69068 882.359 68.1424 951.812 157.072C1021.27 246.002 1130.11 385.37 1130.11 385.37" stroke="#F7685B" stroke-width="26.5069"/>
<path opacity="0.08" d="M784.522 -72C784.522 -72 815.621 -32.1807 876.781 46.1307C937.942 124.442 776.63 184.894 846.084 273.824C915.537 362.753 1024.38 502.121 1024.38 502.121" stroke="#40196D" stroke-width="26.5069"/>
<path opacity="0.08" d="M1072.14 414.499C1072.14 414.499 1010.63 335.733 935.419 239.435C860.211 143.137 834 292.169 748.594 182.813C663.189 73.4577 529.344 -97.9202 529.344 -97.9202" stroke="#FFC83E" stroke-width="26.5069"/>
<path opacity="0.08" d="M1031.68 500.03C1031.68 500.03 995.764 535.562 925.123 605.442C854.483 675.322 1006.78 755.835 926.558 835.19C846.339 914.545 720.623 1038.91 720.623 1038.91" stroke="#40196D" stroke-width="26.5069"/>
<path opacity="0.08" d="M1138.92 634.063C1138.92 634.063 1103 669.595 1032.36 739.475C961.719 809.355 1114.01 889.868 1033.79 969.224C953.576 1048.58 827.859 1172.94 827.859 1172.94" stroke="#F7685B" stroke-width="26.5069"/>
<path opacity="0.08" d="M774.407 1075.19C774.407 1075.19 845.458 1004.9 932.323 918.97C1019.19 833.04 1026.2 984.197 1124.84 886.615C1223.48 789.034 1378.07 636.107 1378.07 636.107" stroke="#FFC83E" stroke-width="26.5069"/>
<path opacity="0.08" d="M521.391 1089.84C521.391 1089.84 371.624 1093.05 272.282 1095.17C172.941 1097.3 234.134 926.835 121.322 929.247C8.51028 931.66 -129.594 934.614 -129.594 934.614" stroke="#40196D" stroke-width="26.5069"/>
<path opacity="0.08" d="M681.143 1038.42C599.212 1094.64 556.979 918.518 463.939 982.36C370.899 1046.2 256.999 1124.36 256.999 1124.36" stroke="#40196D" stroke-width="26.5069"/>
<path opacity="0.08" d="M893.143 -35.6169C811.212 -91.8363 768.979 84.2833 675.939 20.441C582.899 -43.4014 468.999 -121.557 468.999 -121.557" stroke="#40196D" stroke-width="26.5069"/>
<path opacity="0.08" d="M-192.251 938.299C-192.251 938.299 -130.858 947.831 -10.1176 966.577C110.622 985.324 14.8421 1188.27 151.954 1209.56C289.065 1230.84 503.941 1264.21 503.941 1264.21" stroke="#FFC83E" stroke-width="26.5069"/>
<path opacity="0.08" d="M1023.15 845.783C1089.33 771.661 920.003 707.389 995.152 623.216C1070.3 539.044 1162.3 436 1162.3 436" stroke="#F7685B" stroke-width="26.5069"/>
</g>
<defs>
<clipPath id="clip0_15073_377580">
<rect width="997" height="1024" fill="white"/>
</clipPath>
</defs>
</svg>
