<svg width="17" height="18" viewBox="0 0 17 18" fill="none" xmlns="http://www.w3.org/2000/svg">
<g clip-path="url(#clip0_242_84495)">
<path d="M8.1987 6.45569L3.11005 7.02142C2.77265 7.05893 2.46397 7.22894 2.25192 7.49404C2.03987 7.75914 1.94181 8.09762 1.97932 8.43502L2.26219 10.9793C2.2997 11.3167 2.4697 11.6254 2.7348 11.8375C2.9999 12.0495 3.33838 12.1476 3.67578 12.1101L4.31186 12.0394L4.59473 14.5837C4.61348 14.7524 4.69849 14.9067 4.83104 15.0127C4.96359 15.1188 5.13283 15.1678 5.30153 15.149L6.57369 15.0076C6.74239 14.9889 6.89673 14.9039 7.00275 14.7713C7.10878 14.6388 7.15781 14.4695 7.13905 14.3008L6.85619 11.7565L8.76443 11.5443L12.2277 13.7351L11.0962 3.55778L8.1987 6.45569ZM14.5243 8.32821C14.6453 9.41591 14.1442 10.4697 13.217 11.0493L12.6513 5.96068C13.6775 6.32954 14.4041 7.24687 14.5243 8.32821Z" fill="#40196D"/>
</g>
<defs>
<clipPath id="clip0_242_84495">
<rect width="15.36" height="15.36" fill="white" transform="translate(0 2.21558) rotate(-6.34381)"/>
</clipPath>
</defs>
</svg>
