<svg
      width="15"
      height="15"
      viewBox="0 0 15 15"
      fill="none"
      xmlns="http://www.w3.org/2000/svg"
    >
      <mask
        id="path-1-outside-1_14153_191936"
        maskUnits="userSpaceOnUse"
        x="0.650024"
        y="0.649994"
        width="14"
        height="14"
        fill="black"
      >
        <rect fill="white" x="0.650024" y="0.649994" width="14" height="14" />
        <path
          fill-rule="evenodd"
          clip-rule="evenodd"
          d="M13.35 7.49999C13.35 10.7309 10.7309 13.35 7.50002 13.35C4.26916 13.35 1.65002 10.7309 1.65002 7.49999C1.65002 4.26913 4.26916 1.64999 7.50002 1.64999C10.7309 1.64999 13.35 4.26913 13.35 7.49999ZM6.04115 9.97404C6.23791 10.1708 6.55942 10.1624 6.74558 9.95554L10.7477 5.50935C10.8978 5.34259 10.8843 5.08572 10.7176 4.93561C10.5508 4.78551 10.294 4.79902 10.1439 4.96577L6.37214 9.15595L4.84235 7.62616C4.6837 7.46751 4.42647 7.46751 4.26781 7.62616C4.10916 7.78482 4.10916 8.04205 4.26781 8.2007L6.04115 9.97404Z"
        />
      </mask>
      <path
        fill-rule="evenodd"
        clip-rule="evenodd"
        d="M13.35 7.49999C13.35 10.7309 10.7309 13.35 7.50002 13.35C4.26916 13.35 1.65002 10.7309 1.65002 7.49999C1.65002 4.26913 4.26916 1.64999 7.50002 1.64999C10.7309 1.64999 13.35 4.26913 13.35 7.49999ZM6.04115 9.97404C6.23791 10.1708 6.55942 10.1624 6.74558 9.95554L10.7477 5.50935C10.8978 5.34259 10.8843 5.08572 10.7176 4.93561C10.5508 4.78551 10.294 4.79902 10.1439 4.96577L6.37214 9.15595L4.84235 7.62616C4.6837 7.46751 4.42647 7.46751 4.26781 7.62616C4.10916 7.78482 4.10916 8.04205 4.26781 8.2007L6.04115 9.97404Z"
        fill="#40196D"
      />
      <path
        d="M6.74558 9.95554L6.00233 9.28652L6.74558 9.95554ZM6.04115 9.97404L6.74826 9.26694L6.74826 9.26694L6.04115 9.97404ZM10.7477 5.50935L10.0045 4.84033L10.7477 5.50935ZM10.7176 4.93561L11.3866 4.19236L11.3866 4.19236L10.7176 4.93561ZM10.1439 4.96577L10.8871 5.63479V5.63479L10.1439 4.96577ZM6.37214 9.15595L5.66503 9.86305L6.41027 10.6083L7.11538 9.82497L6.37214 9.15595ZM4.84235 7.62616L5.54946 6.91905L5.54946 6.91905L4.84235 7.62616ZM7.50002 14.35C11.2832 14.35 14.35 11.2831 14.35 7.49999H12.35C12.35 10.1786 10.1786 12.35 7.50002 12.35V14.35ZM0.650024 7.49999C0.650024 11.2831 3.71687 14.35 7.50002 14.35V12.35C4.82144 12.35 2.65002 10.1786 2.65002 7.49999H0.650024ZM7.50002 0.649994C3.71687 0.649994 0.650024 3.71684 0.650024 7.49999H2.65002C2.65002 4.82141 4.82144 2.64999 7.50002 2.64999V0.649994ZM14.35 7.49999C14.35 3.71684 11.2832 0.649994 7.50002 0.649994V2.64999C10.1786 2.64999 12.35 4.82141 12.35 7.49999H14.35ZM6.00233 9.28652C6.19946 9.06753 6.53991 9.05859 6.74826 9.26694L5.33405 10.6811C5.93591 11.283 6.91938 11.2572 7.48882 10.6246L6.00233 9.28652ZM10.0045 4.84033L6.00233 9.28652L7.48882 10.6246L11.491 6.17836L10.0045 4.84033ZM10.0486 5.67887C9.80485 5.45949 9.78511 5.08406 10.0045 4.84033L11.491 6.17836C12.0106 5.60112 11.9638 4.71195 11.3866 4.19236L10.0486 5.67887ZM10.8871 5.63479C10.6677 5.87852 10.2923 5.89825 10.0486 5.67887L11.3866 4.19236C10.8094 3.67278 9.92021 3.71952 9.40062 4.29675L10.8871 5.63479ZM7.11538 9.82497L10.8871 5.63479L9.40062 4.29675L5.62889 8.48693L7.11538 9.82497ZM4.13524 8.33327L5.66503 9.86305L7.07924 8.44884L5.54946 6.91905L4.13524 8.33327ZM4.97492 8.33327C4.74305 8.56514 4.36711 8.56514 4.13524 8.33327L5.54946 6.91905C5.00028 6.36988 4.10988 6.36987 3.5607 6.91905L4.97492 8.33327ZM4.97492 7.49359C5.20679 7.72546 5.20679 8.1014 4.97492 8.33327L3.5607 6.91905C3.01153 7.46823 3.01153 8.35863 3.5607 8.90781L4.97492 7.49359ZM6.74826 9.26694L4.97492 7.49359L3.5607 8.90781L5.33405 10.6811L6.74826 9.26694Z"
        fill="#EFF1FF"
        mask="url(#path-1-outside-1_14153_191936)"
      />
    </svg>