 <svg
      width="21"
      height="21"
      viewBox="0 0 21 21"
      fill="none"
      xmlns="http://www.w3.org/2000/svg"
    >
      <path
        fill-rule="evenodd"
        clip-rule="evenodd"
        d="M18.375 10.8504C18.375 10.5998 18.3632 10.3622 18.3396 10.1351C18.7627 9.67061 19.0992 9.13408 19.3331 8.55094C19.5667 9.23344 19.6875 9.99732 19.6875 10.8504C19.6875 12.8874 18.9683 14.3154 18.2306 15.2342C17.8929 15.6566 17.5 16.0318 17.0625 16.3498V17.7188C17.0625 18.2409 16.8551 18.7417 16.4859 19.1109C16.1167 19.4801 15.6159 19.6875 15.0938 19.6875H14.4375C14.0894 19.6875 13.7556 19.5492 13.5094 19.3031C13.2633 19.0569 13.125 18.7231 13.125 18.375H10.5C10.5 18.7231 10.3617 19.0569 10.1156 19.3031C9.86944 19.5492 9.5356 19.6875 9.1875 19.6875H8.53125C8.00911 19.6875 7.50835 19.4801 7.13913 19.1109C6.76992 18.7417 6.5625 18.2409 6.5625 17.7188V17.4392C5.72479 17.1712 4.96426 16.7047 4.34569 16.0794C3.56869 15.2919 3.13294 14.3063 2.91506 13.6868C2.88921 13.6017 2.84363 13.524 2.78205 13.4599C2.72047 13.3958 2.64462 13.3472 2.56069 13.3179C1.82306 13.1093 1.3125 12.4359 1.3125 11.6681V10.6247C1.31255 10.2569 1.43234 9.89921 1.65375 9.60558C1.87515 9.31195 2.18614 9.09839 2.53969 8.99719C2.67619 8.95913 2.82319 8.82657 2.89669 8.60738C3.07256 8.07319 3.4125 7.28307 4.03856 6.65044C4.57943 6.11622 5.19374 5.6619 5.86294 5.30119V2.83763C5.8636 2.6383 5.92398 2.44373 6.03627 2.27904C6.14856 2.11434 6.30762 1.98707 6.49294 1.91363C6.6736 1.83841 6.87215 1.81697 7.06471 1.8519C7.25726 1.88683 7.43564 1.97663 7.57838 2.11051C7.96034 2.4765 8.37312 2.80891 8.81213 3.10407C9.29119 3.41776 9.73875 3.61594 10.1049 3.65401H10.1128C9.85819 4.03201 9.65344 4.44151 9.50381 4.87201C8.99588 4.73419 8.51025 4.47563 8.09419 4.20263C7.77418 3.99093 7.46736 3.75994 7.17544 3.51094V5.70807C7.17555 5.83659 7.13793 5.96231 7.06723 6.06964C6.99653 6.17697 6.89587 6.26118 6.77775 6.31182L6.7725 6.31313L6.74625 6.32626C6.72 6.33807 6.67931 6.35644 6.62813 6.38269C6.01531 6.68686 5.45591 7.08845 4.97175 7.57182C4.54913 8.00101 4.28925 8.57326 4.14225 9.01951C3.96244 9.56288 3.53719 10.0774 2.90062 10.2598C2.82114 10.2826 2.75125 10.3307 2.70152 10.3968C2.65179 10.4628 2.62493 10.5433 2.625 10.626V11.6681C2.62508 11.7557 2.65369 11.8409 2.7065 11.9107C2.75932 11.9806 2.83345 12.0314 2.91769 12.0553C3.53325 12.2286 3.96375 12.7142 4.15144 13.251C4.34306 13.7904 4.69875 14.5674 5.28019 15.1581C5.67727 15.5591 6.15202 15.8748 6.67537 16.086C6.87268 16.1657 7.07641 16.2285 7.28438 16.2737C7.44636 16.29 7.59651 16.3659 7.70566 16.4867C7.81481 16.6075 7.87516 16.7645 7.875 16.9273V17.7188C7.875 17.8928 7.94414 18.0597 8.06721 18.1828C8.19028 18.3059 8.3572 18.375 8.53125 18.375H9.1875C9.1875 18.0269 9.32578 17.6931 9.57192 17.4469C9.81806 17.2008 10.1519 17.0625 10.5 17.0625H13.125C13.4731 17.0625 13.8069 17.2008 14.0531 17.4469C14.2992 17.6931 14.4375 18.0269 14.4375 18.375H15.0938C15.2678 18.375 15.4347 18.3059 15.5578 18.1828C15.6809 18.0597 15.75 17.8928 15.75 17.7188V15.9928C15.7499 15.8745 15.7819 15.7584 15.8424 15.6567C15.9029 15.555 15.9898 15.4716 16.0939 15.4153L16.1057 15.4088C16.2127 15.3436 16.3162 15.2726 16.4154 15.1961C16.7091 14.9674 16.9748 14.7049 17.2069 14.4139C17.7817 13.6973 18.375 12.5528 18.375 10.8504ZM8.24293 9.55544C8.05833 9.74004 7.80795 9.84376 7.54688 9.84376C7.2858 9.84376 7.03542 9.74004 6.85082 9.55544C6.66621 9.37083 6.5625 9.12045 6.5625 8.85938C6.5625 8.59831 6.66621 8.34793 6.85082 8.16332C7.03542 7.97872 7.2858 7.87501 7.54688 7.87501C7.80795 7.87501 8.05833 7.97872 8.24293 8.16332C8.42754 8.34793 8.53125 8.59831 8.53125 8.85938C8.53125 9.12045 8.42754 9.37083 8.24293 9.55544ZM13.4158 4.79016C13.4184 4.83042 13.4218 4.86732 13.4255 4.9H15.6145C15.6182 4.86732 15.6216 4.83042 15.6242 4.79016C15.6353 4.61786 15.6306 4.40383 15.5799 4.20127C15.5298 4.00089 15.4416 3.83661 15.3034 3.72088C15.1696 3.60884 14.9386 3.5 14.52 3.5C14.1014 3.5 13.8704 3.60884 13.7366 3.72088C13.5984 3.83661 13.5102 4.00089 13.4601 4.20127C13.4094 4.40383 13.4047 4.61786 13.4158 4.79016ZM16.6221 4.85484C16.6211 4.87022 16.62 4.88528 16.6189 4.9H17.04C17.3161 4.9 17.54 5.12386 17.54 5.4V9C17.54 9.27614 17.3161 9.5 17.04 9.5H12C11.7239 9.5 11.5 9.27614 11.5 9V5.4C11.5 5.12386 11.7239 4.9 12 4.9H12.4212C12.42 4.88528 12.4189 4.87022 12.4179 4.85484C12.4028 4.62214 12.4056 4.29617 12.4899 3.95873C12.5748 3.61911 12.7491 3.24339 13.0947 2.95412C13.4446 2.66116 13.9186 2.5 14.52 2.5C15.1214 2.5 15.5954 2.66116 15.9453 2.95412C16.2909 3.24339 16.4652 3.61911 16.5501 3.95873C16.6344 4.29617 16.6372 4.62214 16.6221 4.85484ZM12.5 8.5V5.9H16.54V8.5H12.5Z"
        fill="#40196D"
      />
      <path
        d="M18.3396 10.1351L18.1547 9.96679C18.1068 10.0195 18.0835 10.0901 18.0909 10.161L18.3396 10.1351ZM19.3331 8.55094L19.5697 8.46998C19.5358 8.37112 19.4441 8.30373 19.3396 8.30103C19.2351 8.29832 19.14 8.36087 19.1011 8.45785L19.3331 8.55094ZM18.2306 15.2342L18.0357 15.0777L18.0354 15.0781L18.2306 15.2342ZM17.0625 16.3498L16.9155 16.1476C16.8508 16.1946 16.8125 16.2698 16.8125 16.3498H17.0625ZM13.125 18.375H13.375C13.375 18.2369 13.2631 18.125 13.125 18.125V18.375ZM10.5 18.375V18.125C10.3619 18.125 10.25 18.2369 10.25 18.375H10.5ZM6.5625 17.4392H6.8125C6.8125 17.3305 6.74223 17.2342 6.63867 17.2011L6.5625 17.4392ZM4.34569 16.0794L4.16773 16.255L4.16796 16.2553L4.34569 16.0794ZM2.91506 13.6868L2.67565 13.7595L2.67922 13.7697L2.91506 13.6868ZM2.56069 13.3179L2.6429 13.0818C2.63823 13.0802 2.63351 13.0787 2.62875 13.0774L2.56069 13.3179ZM1.3125 10.6247L1.0625 10.6247V10.6247H1.3125ZM2.53969 8.99719L2.47254 8.75637L2.47089 8.75685L2.53969 8.99719ZM2.89669 8.60738L3.13372 8.68686L3.13415 8.68556L2.89669 8.60738ZM4.03856 6.65044L3.86287 6.47256L3.86087 6.47459L4.03856 6.65044ZM5.86294 5.30119L5.98156 5.52126C6.06248 5.47764 6.11294 5.39313 6.11294 5.30119H5.86294ZM5.86294 2.83763L5.61294 2.83679V2.83763H5.86294ZM6.49294 1.91363L6.58505 2.14608L6.58903 2.14443L6.49294 1.91363ZM7.06471 1.8519L7.02009 2.09789L7.06471 1.8519ZM7.57838 2.11051L7.75135 1.92998L7.7494 1.92816L7.57838 2.11051ZM8.81213 3.10407L8.67263 3.31155L8.67517 3.31322L8.81213 3.10407ZM10.1049 3.65401L10.0791 3.90267C10.0877 3.90356 10.0963 3.90401 10.1049 3.90401V3.65401ZM10.1128 3.65401L10.3202 3.79368C10.3718 3.71703 10.3769 3.61815 10.3335 3.53657C10.2901 3.45499 10.2052 3.40401 10.1128 3.40401V3.65401ZM9.50381 4.87201L9.43835 5.11328C9.5651 5.14767 9.69684 5.07813 9.73996 4.95408L9.50381 4.87201ZM8.09419 4.20263L7.95625 4.41114L7.95704 4.41165L8.09419 4.20263ZM7.17544 3.51094L7.33768 3.32074C7.26348 3.25745 7.15925 3.24308 7.0707 3.28394C6.98215 3.3248 6.92544 3.41342 6.92544 3.51094H7.17544ZM7.17544 5.70807H6.92544V5.70829L7.17544 5.70807ZM6.77775 6.31182L6.83837 6.55436C6.85132 6.55112 6.86399 6.54685 6.87625 6.5416L6.77775 6.31182ZM6.7725 6.31313L6.71188 6.07059C6.69418 6.07502 6.67701 6.08137 6.6607 6.08952L6.7725 6.31313ZM6.74625 6.32626L6.84893 6.55443L6.85805 6.54986L6.74625 6.32626ZM6.62813 6.38269L6.73928 6.60665L6.7422 6.60515L6.62813 6.38269ZM4.97175 7.57182L4.79511 7.39489L4.79362 7.39641L4.97175 7.57182ZM4.14225 9.01951L4.37959 9.09805L4.3797 9.09772L4.14225 9.01951ZM2.90062 10.2598L2.83175 10.0195L2.83166 10.0195L2.90062 10.2598ZM2.625 10.626H2.875L2.875 10.6258L2.625 10.626ZM2.625 11.6681H2.375L2.375 11.6684L2.625 11.6681ZM2.91769 12.0553L2.84928 12.2958L2.84996 12.296L2.91769 12.0553ZM4.15144 13.251L3.91544 13.3335L3.91586 13.3347L4.15144 13.251ZM5.28019 15.1581L5.10203 15.3335L5.10254 15.334L5.28019 15.1581ZM6.67537 16.086L6.76905 15.8542L6.76892 15.8542L6.67537 16.086ZM7.28438 16.2737L7.23133 16.518C7.24058 16.52 7.24995 16.5215 7.25938 16.5224L7.28438 16.2737ZM7.875 16.9273L7.625 16.9271V16.9273H7.875ZM9.1875 18.375V18.625C9.32557 18.625 9.4375 18.5131 9.4375 18.375H9.1875ZM14.4375 18.375H14.1875C14.1875 18.5131 14.2994 18.625 14.4375 18.625V18.375ZM15.75 15.9928H16V15.9927L15.75 15.9928ZM16.0939 15.4153L16.2129 15.6352L16.2153 15.6339L16.0939 15.4153ZM16.1057 15.4088L16.2272 15.6275L16.2357 15.6223L16.1057 15.4088ZM16.4154 15.1961L16.568 15.3942L16.569 15.3934L16.4154 15.1961ZM17.2069 14.4139L17.0119 14.2574L17.0114 14.258L17.2069 14.4139ZM13.4255 4.9L13.177 4.92766C13.1911 5.05425 13.2981 5.15 13.4255 5.15V4.9ZM13.4158 4.79016L13.1664 4.80633V4.80633L13.4158 4.79016ZM15.6145 4.9V5.15C15.7419 5.15 15.8489 5.05425 15.863 4.92766L15.6145 4.9ZM15.6242 4.79016L15.3747 4.77399V4.77399L15.6242 4.79016ZM15.5799 4.20127L15.8225 4.14063V4.14063L15.5799 4.20127ZM15.3034 3.72088L15.4639 3.52919V3.52919L15.3034 3.72088ZM13.7366 3.72088L13.5761 3.52919V3.52919L13.7366 3.72088ZM13.4601 4.20127L13.7026 4.2619V4.2619L13.4601 4.20127ZM16.6189 4.9L16.3696 4.88052C16.3642 4.95 16.388 5.01859 16.4353 5.06975C16.4826 5.12091 16.5492 5.15 16.6189 5.15V4.9ZM16.6221 4.85484L16.8716 4.87102V4.87101L16.6221 4.85484ZM12.4212 4.9V5.15C12.4908 5.15 12.5574 5.12091 12.6047 5.06975C12.652 5.01859 12.6758 4.95 12.6704 4.88052L12.4212 4.9ZM12.4179 4.85484L12.6674 4.83868L12.6674 4.83867L12.4179 4.85484ZM12.4899 3.95873L12.7325 4.01937V4.01937L12.4899 3.95873ZM13.0947 2.95412L13.2551 3.14581V3.14581L13.0947 2.95412ZM15.9453 2.95412L15.7849 3.14581L15.9453 2.95412ZM16.5501 3.95873L16.7926 3.8981V3.8981L16.5501 3.95873ZM12.5 5.9V5.65C12.3619 5.65 12.25 5.76193 12.25 5.9H12.5ZM12.5 8.5H12.25C12.25 8.63807 12.3619 8.75 12.5 8.75V8.5ZM16.54 5.9H16.79C16.79 5.76193 16.6781 5.65 16.54 5.65V5.9ZM16.54 8.5V8.75C16.6781 8.75 16.79 8.63807 16.79 8.5H16.54ZM18.0909 10.161C18.1136 10.3787 18.125 10.6076 18.125 10.8504H18.625C18.625 10.5919 18.6128 10.3457 18.5882 10.1093L18.0909 10.161ZM19.1011 8.45785C18.8782 9.01329 18.5577 9.52433 18.1547 9.96679L18.5244 10.3035C18.9676 9.81689 19.3201 9.25487 19.5651 8.64404L19.1011 8.45785ZM19.9375 10.8504C19.9375 9.97362 19.8134 9.18195 19.5697 8.46998L19.0966 8.63191C19.3201 9.28494 19.4375 10.021 19.4375 10.8504H19.9375ZM18.4256 15.3907C19.1943 14.4333 19.9375 12.9512 19.9375 10.8504H19.4375C19.4375 12.8236 18.7422 14.1976 18.0357 15.0777L18.4256 15.3907ZM17.2095 16.552C17.6651 16.2209 18.0742 15.8302 18.4259 15.3903L18.0354 15.0781C17.7116 15.483 17.3349 15.8427 16.9155 16.1476L17.2095 16.552ZM17.3125 17.7188V16.3498H16.8125V17.7188H17.3125ZM16.6626 19.2876C17.0787 18.8716 17.3125 18.3072 17.3125 17.7188H16.8125C16.8125 18.1746 16.6314 18.6118 16.3091 18.9341L16.6626 19.2876ZM15.0938 19.9375C15.6822 19.9375 16.2465 19.7037 16.6626 19.2876L16.3091 18.9341C15.9868 19.2564 15.5496 19.4375 15.0938 19.4375V19.9375ZM14.4375 19.9375H15.0938V19.4375H14.4375V19.9375ZM13.3326 19.4799C13.6257 19.7729 14.0231 19.9375 14.4375 19.9375V19.4375C14.1557 19.4375 13.8855 19.3256 13.6862 19.1263L13.3326 19.4799ZM12.875 18.375C12.875 18.7894 13.0396 19.1868 13.3326 19.4799L13.6862 19.1263C13.4869 18.927 13.375 18.6568 13.375 18.375H12.875ZM10.5 18.625H13.125V18.125H10.5V18.625ZM10.2924 19.4799C10.5854 19.1868 10.75 18.7894 10.75 18.375H10.25C10.25 18.6568 10.1381 18.927 9.9388 19.1263L10.2924 19.4799ZM9.1875 19.9375C9.6019 19.9375 9.99933 19.7729 10.2924 19.4799L9.9388 19.1263C9.73954 19.3256 9.46929 19.4375 9.1875 19.4375V19.9375ZM8.53125 19.9375H9.1875V19.4375H8.53125V19.9375ZM6.96236 19.2876C7.37845 19.7037 7.9428 19.9375 8.53125 19.9375V19.4375C8.07541 19.4375 7.63824 19.2564 7.31591 18.9341L6.96236 19.2876ZM6.3125 17.7188C6.3125 18.3072 6.54626 18.8716 6.96236 19.2876L7.31591 18.9341C6.99358 18.6118 6.8125 18.1746 6.8125 17.7188H6.3125ZM6.3125 17.4392V17.7188H6.8125V17.4392H6.3125ZM4.16796 16.2553C4.81487 16.9092 5.61024 17.397 6.48633 17.6773L6.63867 17.2011C5.83934 16.9454 5.11365 16.5002 4.52341 15.9036L4.16796 16.2553ZM2.67922 13.7697C2.90251 14.4046 3.35351 15.4298 4.16773 16.255L4.52365 15.9039C3.78387 15.1541 3.36336 14.2079 3.1509 13.6038L2.67922 13.7697ZM2.60178 13.6331C2.63609 13.6688 2.66147 13.7121 2.67587 13.7595L3.15425 13.614C3.11694 13.4913 3.05118 13.3792 2.96232 13.2867L2.60178 13.6331ZM2.47848 13.554C2.52523 13.5703 2.56748 13.5974 2.60178 13.6331L2.96232 13.2867C2.87346 13.1942 2.76402 13.124 2.6429 13.0818L2.47848 13.554ZM1.0625 11.6681C1.0625 12.548 1.64756 13.3194 2.49263 13.5585L2.62875 13.0774C1.99857 12.8991 1.5625 12.3239 1.5625 11.6681H1.0625ZM1.0625 10.6247V11.6681H1.5625V10.6247H1.0625ZM1.45413 9.45507C1.20004 9.79205 1.06256 10.2026 1.0625 10.6247L1.5625 10.6247C1.56255 10.3113 1.66465 10.0064 1.85336 9.7561L1.45413 9.45507ZM2.47089 8.75685C2.06514 8.87299 1.70823 9.11808 1.45413 9.45507L1.85336 9.7561C2.04207 9.50583 2.30714 9.3238 2.60849 9.23754L2.47089 8.75685ZM2.65966 8.5279C2.60707 8.68474 2.51393 8.74484 2.47254 8.75638L2.60684 9.23801C2.83844 9.17342 3.03931 8.9684 3.13372 8.68686L2.65966 8.5279ZM3.86087 6.47459C3.196 7.14642 2.8407 7.97802 2.65923 8.5292L3.13415 8.68556C3.30443 8.16837 3.629 7.41971 4.21626 6.8263L3.86087 6.47459ZM5.74432 5.08113C5.05419 5.45311 4.42067 5.92165 3.86288 6.47258L4.21424 6.82831C4.73819 6.3108 5.33329 5.87068 5.98156 5.52126L5.74432 5.08113ZM5.61294 2.83763V5.30119H6.11294V2.83763H5.61294ZM5.82971 2.1382C5.68928 2.34418 5.61377 2.5875 5.61294 2.83679L6.11294 2.83847C6.11344 2.68909 6.15868 2.54329 6.24283 2.41987L5.82971 2.1382ZM6.40083 1.68122C6.16908 1.77306 5.97015 1.93223 5.82971 2.1382L6.24283 2.41987C6.32698 2.29645 6.44617 2.20108 6.58504 2.14605L6.40083 1.68122ZM7.10932 1.60591C6.86938 1.56239 6.62197 1.5891 6.39685 1.68284L6.58903 2.14443C6.72523 2.08772 6.87492 2.07156 7.02009 2.09789L7.10932 1.60591ZM7.7494 1.92816C7.57154 1.76133 7.34927 1.64943 7.10932 1.60591L7.02009 2.09789C7.16526 2.12422 7.29974 2.19192 7.40735 2.29285L7.7494 1.92816ZM8.95161 2.8966C8.52451 2.60945 8.12294 2.28606 7.75134 1.92999L7.40541 2.29102C7.79774 2.66694 8.22172 3.00837 8.67264 3.31154L8.95161 2.8966ZM10.1308 3.40535C9.82328 3.37338 9.41568 3.20044 8.94908 2.89492L8.67517 3.31322C9.1667 3.63507 9.65422 3.8585 10.0791 3.90267L10.1308 3.40535ZM10.1128 3.40401H10.1049V3.90401H10.1128V3.40401ZM9.73996 4.95408C9.88251 4.54394 10.0776 4.1538 10.3202 3.79368L9.90547 3.51433C9.6388 3.91021 9.42437 4.33907 9.26767 4.78993L9.73996 4.95408ZM7.95704 4.41165C8.38504 4.69249 8.89546 4.96599 9.43835 5.11328L9.56928 4.63073C9.09629 4.5024 8.63546 4.25877 8.23134 3.99361L7.95704 4.41165ZM7.0132 3.70115C7.31285 3.95674 7.62778 4.19384 7.95625 4.41114L8.23212 3.99413C7.92058 3.78803 7.62188 3.56315 7.33768 3.32074L7.0132 3.70115ZM7.42544 5.70807V3.51094H6.92544V5.70807H7.42544ZM7.27601 6.20716C7.37364 6.05895 7.4256 5.88533 7.42544 5.70785L6.92544 5.70829C6.92551 5.78785 6.90222 5.86568 6.85845 5.93212L7.27601 6.20716ZM6.87625 6.5416C7.03937 6.47167 7.17838 6.35538 7.27601 6.20716L6.85845 5.93212C6.81469 5.99856 6.75238 6.05069 6.67925 6.08204L6.87625 6.5416ZM6.83312 6.55567L6.83837 6.55436L6.71713 6.06928L6.71188 6.07059L6.83312 6.55567ZM6.85805 6.54986L6.88431 6.53674L6.6607 6.08952L6.63444 6.10265L6.85805 6.54986ZM6.7422 6.60515C6.78759 6.58187 6.82361 6.56559 6.84884 6.55424L6.64366 6.09828C6.61639 6.11055 6.57104 6.13101 6.51405 6.16024L6.7422 6.60515ZM5.14838 7.74874C5.6134 7.28448 6.15068 6.89877 6.73927 6.60663L6.51698 6.15876C5.87994 6.47495 5.29843 6.89242 4.79512 7.3949L5.14838 7.74874ZM4.3797 9.09772C4.52103 8.66868 4.76559 8.13749 5.14988 7.74723L4.79362 7.39641C4.33266 7.86452 4.05747 8.47783 3.9048 8.94129L4.3797 9.09772ZM2.9695 10.5001C3.70142 10.2904 4.17949 9.70273 4.37959 9.09805L3.90491 8.94096C3.74538 9.42303 3.37295 9.86438 2.83175 10.0195L2.9695 10.5001ZM2.90126 10.5471C2.91833 10.5244 2.94231 10.5079 2.96959 10.5001L2.83166 10.0195C2.69997 10.0573 2.58417 10.137 2.50178 10.2464L2.90126 10.5471ZM2.875 10.6258C2.87498 10.5974 2.88419 10.5698 2.90126 10.5471L2.50178 10.2464C2.41938 10.3559 2.37488 10.4892 2.375 10.6262L2.875 10.6258ZM2.875 11.6681V10.626H2.375V11.6681H2.875ZM2.90594 11.76C2.88589 11.7335 2.87503 11.7011 2.875 11.6679L2.375 11.6684C2.37513 11.8103 2.4215 11.9483 2.50707 12.0615L2.90594 11.76ZM2.98609 11.8149C2.95412 11.8058 2.92598 11.7865 2.90594 11.76L2.50707 12.0615C2.59265 12.1747 2.71278 12.2569 2.84928 12.2958L2.98609 11.8149ZM4.38743 13.1685C4.17745 12.5679 3.69211 12.0136 2.98542 11.8147L2.84996 12.296C3.37439 12.4436 3.75005 12.8605 3.91545 13.3335L4.38743 13.1685ZM5.45834 14.9827C4.91391 14.4296 4.57338 13.6919 4.38702 13.1673L3.91586 13.3347C4.11275 13.8889 4.48359 14.7052 5.10203 15.3335L5.45834 14.9827ZM6.76892 15.8542C6.27712 15.6557 5.83098 15.359 5.45783 14.9822L5.10254 15.334C5.52357 15.7592 6.02693 16.0939 6.58183 16.3178L6.76892 15.8542ZM7.33742 16.0294C7.14334 15.9872 6.95319 15.9286 6.76905 15.8542L6.5817 16.3178C6.79216 16.4029 7.00949 16.4698 7.23133 16.518L7.33742 16.0294ZM7.89115 16.3191C7.74042 16.1523 7.53307 16.0474 7.30938 16.0249L7.25938 16.5224C7.35965 16.5325 7.4526 16.5795 7.52017 16.6543L7.89115 16.3191ZM8.125 16.9276C8.12523 16.7027 8.04188 16.4859 7.89115 16.3191L7.52017 16.6543C7.58774 16.7291 7.6251 16.8263 7.625 16.9271L8.125 16.9276ZM8.125 17.7188V16.9273H7.625V17.7188H8.125ZM8.24399 18.006C8.1678 17.9298 8.125 17.8265 8.125 17.7188H7.625C7.625 17.9591 7.72048 18.1896 7.89043 18.3596L8.24399 18.006ZM8.53125 18.125C8.4235 18.125 8.32017 18.0822 8.24399 18.006L7.89043 18.3596C8.06039 18.5295 8.2909 18.625 8.53125 18.625V18.125ZM9.1875 18.125H8.53125V18.625H9.1875V18.125ZM9.39515 17.2702C9.10212 17.5632 8.9375 17.9606 8.9375 18.375H9.4375C9.4375 18.0932 9.54944 17.823 9.7487 17.6237L9.39515 17.2702ZM10.5 16.8125C10.0856 16.8125 9.68817 16.9771 9.39515 17.2702L9.7487 17.6237C9.94796 17.4244 10.2182 17.3125 10.5 17.3125V16.8125ZM13.125 16.8125H10.5V17.3125H13.125V16.8125ZM14.2299 17.2702C13.9368 16.9771 13.5394 16.8125 13.125 16.8125V17.3125C13.4068 17.3125 13.677 17.4244 13.8763 17.6237L14.2299 17.2702ZM14.6875 18.375C14.6875 17.9606 14.5229 17.5632 14.2299 17.2702L13.8763 17.6237C14.0756 17.823 14.1875 18.0932 14.1875 18.375H14.6875ZM15.0938 18.125H14.4375V18.625H15.0938V18.125ZM15.381 18.006C15.3048 18.0822 15.2015 18.125 15.0938 18.125V18.625C15.3341 18.625 15.5646 18.5295 15.7346 18.3596L15.381 18.006ZM15.5 17.7188C15.5 17.8265 15.4572 17.9298 15.381 18.006L15.7346 18.3596C15.9045 18.1896 16 17.9591 16 17.7188H15.5ZM15.5 15.9928V17.7188H16V15.9928H15.5ZM15.6276 15.5288C15.544 15.6692 15.4999 15.8296 15.5 15.993L16 15.9927C16 15.9194 16.0197 15.8475 16.0572 15.7846L15.6276 15.5288ZM15.9749 15.1955C15.8312 15.2732 15.7112 15.3884 15.6276 15.5288L16.0572 15.7846C16.0947 15.7217 16.1485 15.67 16.2129 15.6352L15.9749 15.1955ZM15.9843 15.1902L15.9725 15.1968L16.2153 15.6339L16.2271 15.6273L15.9843 15.1902ZM16.2629 14.9981C16.1708 15.069 16.075 15.1348 15.9757 15.1952L16.2357 15.6223C16.3505 15.5524 16.4615 15.4762 16.568 15.3942L16.2629 14.9981ZM17.0114 14.258C16.7916 14.5336 16.54 14.7823 16.2618 14.9989L16.569 15.3934C16.8782 15.1526 17.1579 14.8761 17.4023 14.5698L17.0114 14.258ZM18.125 10.8504C18.125 12.489 17.5557 13.5795 17.0119 14.2574L17.4019 14.5703C18.0078 13.815 18.625 12.6165 18.625 10.8504H18.125ZM7.54688 10.0938C7.87425 10.0938 8.18822 9.96371 8.41971 9.73222L8.06616 9.37866C7.92843 9.51638 7.74164 9.59376 7.54688 9.59376V10.0938ZM6.67404 9.73222C6.90553 9.96371 7.2195 10.0938 7.54688 10.0938V9.59376C7.35211 9.59376 7.16532 9.51638 7.02759 9.37866L6.67404 9.73222ZM6.3125 8.85938C6.3125 9.18676 6.44255 9.50073 6.67404 9.73222L7.02759 9.37866C6.88987 9.24094 6.8125 9.05415 6.8125 8.85938H6.3125ZM6.67404 7.98655C6.44255 8.21804 6.3125 8.532 6.3125 8.85938H6.8125C6.8125 8.66461 6.88987 8.47782 7.02759 8.3401L6.67404 7.98655ZM7.54688 7.62501C7.2195 7.62501 6.90553 7.75505 6.67404 7.98655L7.02759 8.3401C7.16532 8.20238 7.35211 8.12501 7.54688 8.12501V7.62501ZM8.41971 7.98655C8.18822 7.75505 7.87425 7.62501 7.54688 7.62501V8.12501C7.74164 8.12501 7.92843 8.20238 8.06616 8.3401L8.41971 7.98655ZM8.78125 8.85938C8.78125 8.532 8.6512 8.21804 8.41971 7.98655L8.06616 8.3401C8.20388 8.47782 8.28125 8.66461 8.28125 8.85938H8.78125ZM8.41971 9.73222C8.6512 9.50073 8.78125 9.18676 8.78125 8.85938H8.28125C8.28125 9.05415 8.20388 9.24094 8.06616 9.37866L8.41971 9.73222ZM13.6739 4.87234C13.6707 4.84316 13.6676 4.8101 13.6653 4.77399L13.1664 4.80633C13.1692 4.85074 13.173 4.89148 13.177 4.92766L13.6739 4.87234ZM15.6145 4.65H13.4255V5.15H15.6145V4.65ZM15.3747 4.77399C15.3724 4.8101 15.3693 4.84316 15.3661 4.87234L15.863 4.92766C15.867 4.89148 15.8708 4.85074 15.8736 4.80633L15.3747 4.77399ZM15.3374 4.2619C15.3796 4.43072 15.3849 4.61677 15.3747 4.77399L15.8736 4.80633C15.8858 4.61896 15.8815 4.37693 15.8225 4.14063L15.3374 4.2619ZM15.1429 3.91257C15.2295 3.98505 15.2961 4.09661 15.3374 4.2619L15.8225 4.14063C15.7636 3.90518 15.6538 3.68817 15.4639 3.52919L15.1429 3.91257ZM14.52 3.75C14.8926 3.75 15.063 3.84562 15.1429 3.91257L15.4639 3.52919C15.2762 3.37205 14.9845 3.25 14.52 3.25V3.75ZM13.8971 3.91257C13.977 3.84562 14.1474 3.75 14.52 3.75V3.25C14.0555 3.25 13.7638 3.37205 13.5761 3.52919L13.8971 3.91257ZM13.7026 4.2619C13.7439 4.09661 13.8105 3.98505 13.8971 3.91257L13.5761 3.52919C13.3862 3.68817 13.2764 3.90518 13.2175 4.14063L13.7026 4.2619ZM13.6653 4.77399C13.6551 4.61677 13.6604 4.43072 13.7026 4.2619L13.2175 4.14063C13.1585 4.37693 13.1542 4.61896 13.1664 4.80633L13.6653 4.77399ZM16.8681 4.91948C16.8693 4.90367 16.8705 4.88751 16.8716 4.87102L16.3726 4.83866C16.3717 4.85294 16.3707 4.8669 16.3696 4.88052L16.8681 4.91948ZM17.04 4.65H16.6189V5.15H17.04V4.65ZM17.79 5.4C17.79 4.98579 17.4542 4.65 17.04 4.65V5.15C17.1781 5.15 17.29 5.26193 17.29 5.4H17.79ZM17.79 9V5.4H17.29V9H17.79ZM17.04 9.75C17.4542 9.75 17.79 9.41421 17.79 9H17.29C17.29 9.13807 17.1781 9.25 17.04 9.25V9.75ZM12 9.75H17.04V9.25H12V9.75ZM11.25 9C11.25 9.41421 11.5858 9.75 12 9.75V9.25C11.8619 9.25 11.75 9.13807 11.75 9H11.25ZM11.25 5.4V9H11.75V5.4H11.25ZM12 4.65C11.5858 4.65 11.25 4.98579 11.25 5.4H11.75C11.75 5.26193 11.8619 5.15 12 5.15V4.65ZM12.4212 4.65H12V5.15H12.4212V4.65ZM12.1684 4.871C12.1695 4.88752 12.1707 4.90369 12.1719 4.91948L12.6704 4.88052C12.6693 4.86688 12.6683 4.85292 12.6674 4.83868L12.1684 4.871ZM12.2474 3.8981C12.1546 4.26925 12.1524 4.62319 12.1684 4.87101L12.6674 4.83867C12.6533 4.62109 12.6565 4.3231 12.7325 4.01937L12.2474 3.8981ZM12.9342 2.76243C12.5368 3.09514 12.341 3.52378 12.2474 3.8981L12.7325 4.01937C12.8087 3.71443 12.9615 3.39163 13.2551 3.14581L12.9342 2.76243ZM14.52 2.25C13.873 2.25 13.3382 2.42417 12.9342 2.76243L13.2551 3.14581C13.551 2.89815 13.9642 2.75 14.52 2.75V2.25ZM16.1058 2.76243C15.7018 2.42417 15.167 2.25 14.52 2.25V2.75C15.0758 2.75 15.489 2.89815 15.7849 3.14581L16.1058 2.76243ZM16.7926 3.8981C16.699 3.52378 16.5032 3.09514 16.1058 2.76243L15.7849 3.14581C16.0785 3.39163 16.2313 3.71443 16.3075 4.01937L16.7926 3.8981ZM16.8716 4.87101C16.8876 4.62319 16.8854 4.26925 16.7926 3.8981L16.3075 4.01937C16.3835 4.3231 16.3867 4.62109 16.3726 4.83867L16.8716 4.87101ZM12.25 5.9V8.5H12.75V5.9H12.25ZM16.54 5.65H12.5V6.15H16.54V5.65ZM16.79 8.5V5.9H16.29V8.5H16.79ZM12.5 8.75H16.54V8.25H12.5V8.75Z"
        fill="#40196D"
      />
    </svg>