<svg width="16" height="16" viewBox="0 0 16 16" fill="none" xmlns="http://www.w3.org/2000/svg">
<g clip-path="url(#clip0_15008_176219)">
<circle cx="8" cy="8" r="7.77143" fill="white" stroke="#DBDCE0" stroke-width="0.457143"/>
<g clip-path="url(#clip1_15008_176219)">
<path d="M13.5409 8.12856C13.5409 7.74789 13.5101 7.36516 13.4442 6.99066H8.16016V9.14712H11.1861C11.0605 9.84262 10.6571 10.4579 10.0663 10.8488V12.2481H11.8715C12.9316 11.2727 13.5409 9.83233 13.5409 8.12856Z" fill="#4285F4"/>
<path d="M8.1624 13.6002C9.6733 13.6002 10.9475 13.1043 11.8758 12.2483L10.0706 10.849C9.56831 11.1906 8.9199 11.384 8.16445 11.384C6.70296 11.384 5.46377 10.3984 5.01915 9.07324H3.15625V10.5157C4.10725 12.4067 6.04425 13.6002 8.1624 13.6002Z" fill="#34A853"/>
<path d="M5.01535 9.07318C4.78069 8.37768 4.78069 7.62457 5.01535 6.92907V5.48663H3.15451C2.35995 7.069 2.35995 8.93326 3.15451 10.5156L5.01535 9.07318Z" fill="#FBBC04"/>
<path d="M8.16239 4.61611C8.96107 4.60376 9.73299 4.90418 10.3114 5.45564L11.9108 3.85682C10.8981 2.90617 9.5539 2.38351 8.16239 2.39997C6.04425 2.39997 4.10725 3.59343 3.15625 5.48651L5.01709 6.92895C5.45965 5.60174 6.7009 4.61611 8.16239 4.61611Z" fill="#EA4335"/>
</g>
</g>
<defs>
<clipPath id="clip0_15008_176219">
<rect width="16" height="16" fill="white"/>
</clipPath>
<clipPath id="clip1_15008_176219">
<rect width="10.9818" height="11.2" fill="white" transform="translate(2.56055 2.40002)"/>
</clipPath>
</defs>
</svg>
