<svg width="95" height="40" viewBox="0 0 95 40" fill="none" xmlns="http://www.w3.org/2000/svg">
<path d="M55.9974 6.72029V21.4603H51.8179V19.3075C51.363 20.0833 50.766 20.6748 50.0268 21.0821C49.2875 21.4894 48.4536 21.6931 47.5248 21.6931C45.7241 21.6931 44.3784 21.1791 43.4875 20.1512C42.5967 19.1232 42.1513 17.5717 42.1513 15.4964V6.72029H46.4444V15.5837C46.4444 17.368 47.1931 18.2602 48.6905 18.2602C49.5813 18.2602 50.3016 17.9499 50.8513 17.3292C51.4009 16.7086 51.6758 15.894 51.6758 14.8855V6.72029H55.9974ZM72.3739 0V21.4603H68.1376V19.2784C67.7016 20.0348 67.0856 20.6263 66.2895 21.053C65.4935 21.4797 64.5931 21.6931 63.5886 21.6931C62.3565 21.6931 61.2572 21.373 60.2905 20.7233C59.3238 20.0736 58.5751 19.162 58.0349 17.9887C57.4948 16.8153 57.2294 15.477 57.2294 13.9642C57.2294 12.4514 57.4948 11.1229 58.0349 9.96891C58.5751 8.81493 59.3238 7.92277 60.281 7.29244C61.2382 6.66211 62.3376 6.35179 63.5886 6.35179C64.5552 6.35179 65.4366 6.56513 66.2327 6.97242C67.0288 7.38941 67.6448 7.96156 68.0807 8.69856V0H72.3739ZM67.2846 17.2323C67.8533 16.4856 68.1376 15.4188 68.1376 14.0224C68.1376 12.6454 67.8533 11.5884 67.2752 10.8417C66.6971 10.095 65.8915 9.72648 64.849 9.72648C63.7876 9.72648 62.9631 10.095 62.3755 10.832C61.7879 11.569 61.4941 12.6163 61.4941 13.9739C61.4941 15.3704 61.7879 16.4468 62.3755 17.2129C62.9631 17.979 63.7876 18.3572 64.849 18.3572C65.9105 18.3475 66.716 17.979 67.2846 17.2323ZM88.7599 6.72029V21.4603H84.5236V19.2784C84.0876 20.0348 83.4716 20.6263 82.6755 21.053C81.8794 21.4797 80.9791 21.6931 79.9745 21.6931C78.7236 21.6931 77.6242 21.3827 76.667 20.7621C75.7098 20.1415 74.9611 19.259 74.4209 18.105C73.8807 16.951 73.6154 15.6225 73.6154 14.1097C73.6154 12.5969 73.8807 11.249 74.4209 10.0659C74.9611 8.88281 75.7098 7.97125 76.6765 7.32153C77.6432 6.6718 78.7425 6.35179 79.9745 6.35179C80.9791 6.35179 81.8794 6.57483 82.6755 7.02091C83.4716 7.46699 84.0876 8.06823 84.5236 8.82462V6.72029H88.7599ZM83.6706 17.242C84.2392 16.505 84.5236 15.4382 84.5236 14.0418C84.5236 12.6454 84.2392 11.5787 83.6706 10.832C83.102 10.0853 82.287 9.71678 81.2255 9.71678C80.1641 9.71678 79.3396 10.1047 78.752 10.8805C78.1644 11.6563 77.8706 12.7327 77.8706 14.1097C77.8706 15.4867 78.1549 16.534 78.733 17.2614C79.3111 17.9887 80.1356 18.3475 81.216 18.3475C82.287 18.3475 83.102 17.979 83.6706 17.242ZM41.2888 21.6737H35.9627L30.2385 14.9922V21.6737H25.8979V0H30.2385V13.1594L35.7068 6.76878H40.9192L34.7306 13.9254L41.2888 21.6737Z" fill="#fff"/>
<path d="M14.2821 21.6737L5.95165 11.8599L10.5007 21.6737H7.34479L2.70099 11.666L4.63432 21.6737H2.69151L0.758172 11.6466V21.6737H0V0H0.758172V10.8126L2.71994 0H4.65328L2.68203 10.8611L7.4206 0H10.5386L5.82844 10.8223L14.3863 0H19.286L10.4249 11.1908L19.3239 21.6737H14.2821Z" fill="#fff"/>
<path d="M92.6496 21.4414C93.9477 21.4414 95 20.3646 95 19.0364C95 17.7082 93.9477 16.6315 92.6496 16.6315C91.3516 16.6315 90.2993 17.7082 90.2993 19.0364C90.2993 20.3646 91.3516 21.4414 92.6496 21.4414Z" fill="#fff"/>
<path d="M26.079 37V27.835H27.119L32.748 35.219H32.423V27.835H33.684V37H32.657L27.041 29.616H27.34V37H26.079ZM39.209 37V27.835H45.215V28.914H40.522V31.8H44.916V32.892H40.522V35.908H45.215V37H39.209ZM50.2697 37V27.835H54.1437C55.123 27.835 55.8813 28.069 56.4187 28.537C56.956 28.9963 57.2247 29.642 57.2247 30.474C57.2247 31.02 57.1033 31.488 56.8607 31.878C56.618 32.268 56.2757 32.567 55.8337 32.775C55.3917 32.9743 54.8717 33.074 54.2737 33.074L54.4817 32.866H54.8327C55.188 32.866 55.5043 32.957 55.7817 33.139C56.0677 33.321 56.3017 33.6113 56.4837 34.01L57.7967 37H56.3147L55.0147 33.997C54.8847 33.6417 54.681 33.412 54.4037 33.308C54.135 33.204 53.8013 33.152 53.4027 33.152H51.6217V37H50.2697ZM51.6217 32.125H53.9227C54.5727 32.125 55.0623 31.9863 55.3917 31.709C55.7297 31.4317 55.8987 31.033 55.8987 30.513C55.8987 29.9843 55.7297 29.5857 55.3917 29.317C55.0623 29.0483 54.5727 28.914 53.9227 28.914H51.6217V32.125ZM65.4868 37L61.4568 27.835H62.9128L66.3448 35.869H65.8768L69.3218 27.835H70.7128L66.6698 37H65.4868ZM75.1459 37V27.835H81.1519V28.914H76.4589V31.8H80.8529V32.892H76.4589V35.908H81.1519V37H75.1459Z" fill="#fff"/>
</svg>
