<svg width="95" height="40" viewBox="0 0 95 40" fill="none" xmlns="http://www.w3.org/2000/svg">
<path d="M55.9979 6.72029V21.4603H51.8184V19.3075C51.3635 20.0833 50.7665 20.6748 50.0273 21.0821C49.288 21.4894 48.4541 21.6931 47.5253 21.6931C45.7246 21.6931 44.3789 21.1791 43.488 20.1512C42.5972 19.1232 42.1518 17.5717 42.1518 15.4964V6.72029H46.4449V15.5837C46.4449 17.368 47.1936 18.2602 48.691 18.2602C49.5818 18.2602 50.3021 17.9499 50.8518 17.3292C51.4014 16.7086 51.6763 15.894 51.6763 14.8855V6.72029H55.9979ZM72.3744 0V21.4603H68.1381V19.2784C67.7021 20.0348 67.0861 20.6263 66.29 21.053C65.494 21.4797 64.5936 21.6931 63.5891 21.6931C62.357 21.6931 61.2577 21.373 60.291 20.7233C59.3243 20.0736 58.5756 19.162 58.0354 17.9887C57.4953 16.8153 57.2299 15.477 57.2299 13.9642C57.2299 12.4514 57.4953 11.1229 58.0354 9.96891C58.5756 8.81493 59.3243 7.92277 60.2815 7.29244C61.2387 6.66211 62.3381 6.35179 63.5891 6.35179C64.5557 6.35179 65.4371 6.56513 66.2332 6.97242C67.0293 7.38941 67.6453 7.96156 68.0812 8.69856V0H72.3744ZM67.2851 17.2323C67.8538 16.4856 68.1381 15.4188 68.1381 14.0224C68.1381 12.6454 67.8538 11.5884 67.2757 10.8417C66.6976 10.095 65.892 9.72648 64.8495 9.72648C63.7881 9.72648 62.9636 10.095 62.376 10.832C61.7884 11.569 61.4946 12.6163 61.4946 13.9739C61.4946 15.3704 61.7884 16.4468 62.376 17.2129C62.9636 17.979 63.7881 18.3572 64.8495 18.3572C65.911 18.3475 66.7165 17.979 67.2851 17.2323ZM88.7604 6.72029V21.4603H84.5241V19.2784C84.0881 20.0348 83.4721 20.6263 82.676 21.053C81.8799 21.4797 80.9796 21.6931 79.975 21.6931C78.7241 21.6931 77.6247 21.3827 76.6675 20.7621C75.7103 20.1415 74.9616 19.259 74.4214 18.105C73.8812 16.951 73.6159 15.6225 73.6159 14.1097C73.6159 12.5969 73.8812 11.249 74.4214 10.0659C74.9616 8.88281 75.7103 7.97125 76.677 7.32153C77.6437 6.6718 78.743 6.35179 79.975 6.35179C80.9796 6.35179 81.8799 6.57483 82.676 7.02091C83.4721 7.46699 84.0881 8.06823 84.5241 8.82462V6.72029H88.7604ZM83.6711 17.242C84.2397 16.505 84.5241 15.4382 84.5241 14.0418C84.5241 12.6454 84.2397 11.5787 83.6711 10.832C83.1025 10.0853 82.2875 9.71678 81.226 9.71678C80.1646 9.71678 79.3401 10.1047 78.7525 10.8805C78.1649 11.6563 77.8711 12.7327 77.8711 14.1097C77.8711 15.4867 78.1554 16.534 78.7335 17.2614C79.3116 17.9887 80.1361 18.3475 81.2165 18.3475C82.2875 18.3475 83.1025 17.979 83.6711 17.242ZM41.2893 21.6737H35.9632L30.239 14.9922V21.6737H25.8984V0H30.239V13.1594L35.7073 6.76878H40.9197L34.7311 13.9254L41.2893 21.6737Z" fill="#40196D"/>
<path d="M14.2821 21.6737L5.95165 11.8599L10.5007 21.6737H7.34479L2.70099 11.666L4.63432 21.6737H2.69151L0.758172 11.6466V21.6737H0V0H0.758172V10.8126L2.71994 0H4.65328L2.68203 10.8611L7.4206 0H10.5386L5.82844 10.8223L14.3863 0H19.286L10.4249 11.1908L19.3239 21.6737H14.2821Z" fill="#40196D"/>
<path d="M92.6491 21.4414C93.9472 21.4414 94.9995 20.3646 94.9995 19.0364C94.9995 17.7082 93.9472 16.6315 92.6491 16.6315C91.3511 16.6315 90.2988 17.7082 90.2988 19.0364C90.2988 20.3646 91.3511 21.4414 92.6491 21.4414Z" fill="#40196D"/>
<path d="M26.0781 37V27.835H27.1181L32.7471 35.219H32.4221V27.835H33.6831V37H32.6561L27.0401 29.616H27.3391V37H26.0781ZM39.2081 37V27.835H45.2141V28.914H40.5211V31.8H44.9151V32.892H40.5211V35.908H45.2141V37H39.2081ZM50.2688 37V27.835H54.1428C55.1221 27.835 55.8804 28.069 56.4178 28.537C56.9551 28.9963 57.2238 29.642 57.2238 30.474C57.2238 31.02 57.1024 31.488 56.8598 31.878C56.6171 32.268 56.2748 32.567 55.8328 32.775C55.3908 32.9743 54.8708 33.074 54.2728 33.074L54.4808 32.866H54.8318C55.1871 32.866 55.5034 32.957 55.7808 33.139C56.0668 33.321 56.3008 33.6113 56.4828 34.01L57.7958 37H56.3138L55.0138 33.997C54.8838 33.6417 54.6801 33.412 54.4028 33.308C54.1341 33.204 53.8004 33.152 53.4018 33.152H51.6208V37H50.2688ZM51.6208 32.125H53.9218C54.5718 32.125 55.0614 31.9863 55.3908 31.709C55.7288 31.4317 55.8978 31.033 55.8978 30.513C55.8978 29.9843 55.7288 29.5857 55.3908 29.317C55.0614 29.0483 54.5718 28.914 53.9218 28.914H51.6208V32.125ZM65.4859 37L61.4559 27.835H62.9119L66.3439 35.869H65.8759L69.3209 27.835H70.7119L66.6689 37H65.4859ZM75.145 37V27.835H81.151V28.914H76.458V31.8H80.852V32.892H76.458V35.908H81.151V37H75.145Z" fill="#40196D"/>
</svg>
