<svg
    width="15"
    height="14"
    viewBox="0 0 15 14"
    fill="none"
    xmlns="http://www.w3.org/2000/svg"
  >
    <path
      d="M0.992188 7.35938C0.992188 7.64062 1.09115 7.88021 1.28906 8.07812C1.48698 8.27083 1.72396 8.36719 2 8.36719H6.60156V12.9688C6.60156 13.2396 6.69792 13.474 6.89062 13.6719C7.08333 13.8698 7.32031 13.9688 7.60156 13.9688C7.8776 13.9688 8.11458 13.8698 8.3125 13.6719C8.51042 13.474 8.60938 13.2396 8.60938 12.9688V8.36719H13.2109C13.4818 8.36719 13.7161 8.27083 13.9141 8.07812C14.112 7.88021 14.2109 7.64062 14.2109 7.35938C14.2109 7.08333 14.112 6.84635 13.9141 6.64844C13.7161 6.45052 13.4818 6.35156 13.2109 6.35156H8.60938V1.75781C8.60938 1.48177 8.51042 1.24479 8.3125 1.04688C8.11458 0.848958 7.8776 0.75 7.60156 0.75C7.32031 0.75 7.08333 0.848958 6.89062 1.04688C6.69792 1.24479 6.60156 1.48177 6.60156 1.75781V6.35156H2C1.72396 6.35156 1.48698 6.45052 1.28906 6.64844C1.09115 6.84635 0.992188 7.08333 0.992188 7.35938Z"
      fill="#40196D"
    />
  </svg>