<svg
                  width="20"
                  height="20"
                  viewBox="0 0 20 20"
                  fill="none"
                  xmlns="http://www.w3.org/2000/svg"
                >
                  <path
                    d="M3.84326 11.336C3.84326 12.1901 4.00188 12.9905 4.3191 13.7372C4.64121 14.479 5.08289 15.133 5.64414 15.6991C6.20539 16.2604 6.85693 16.6996 7.59875 17.0168C8.34546 17.3389 9.14585 17.5 9.99992 17.5C10.854 17.5 11.6519 17.3389 12.3938 17.0168C13.1405 16.6996 13.7945 16.2604 14.3557 15.6991C14.9218 15.133 15.3635 14.479 15.6807 13.7372C15.998 12.9905 16.1566 12.1901 16.1566 11.336C16.1566 11.1457 16.0956 10.9919 15.9736 10.8748C15.8564 10.7528 15.7027 10.6918 15.5124 10.6918C15.3318 10.6918 15.1854 10.7528 15.0731 10.8748C14.9658 10.9919 14.9121 11.1457 14.9121 11.336C14.9121 12.0193 14.7852 12.6586 14.5314 13.254C14.2776 13.8494 13.9262 14.3716 13.4772 14.8206C13.0282 15.2696 12.506 15.6186 11.9106 15.8675C11.3201 16.1213 10.6832 16.2482 9.99992 16.2482C9.32154 16.2482 8.68465 16.1213 8.08924 15.8675C7.49382 15.6186 6.97162 15.2696 6.52262 14.8206C6.07362 14.3716 5.72223 13.8494 5.46844 13.254C5.21954 12.6586 5.09509 12.0193 5.09509 11.336C5.09509 10.6528 5.21954 10.0134 5.46844 9.41801C5.71735 8.8226 6.0663 8.30039 6.5153 7.85139C6.9643 7.40239 7.48406 7.051 8.07459 6.79722C8.67001 6.54344 9.3069 6.41655 9.98528 6.41655C10.2293 6.41655 10.4636 6.42631 10.6881 6.44583C10.9126 6.46535 11.12 6.49707 11.3103 6.541L9.34107 8.49561C9.28738 8.55905 9.24346 8.62738 9.20929 8.70059C9.18001 8.76891 9.16537 8.84456 9.16537 8.92753C9.16537 9.09834 9.22394 9.24475 9.34107 9.36677C9.4582 9.4839 9.60217 9.54246 9.77298 9.54246C9.95844 9.54246 10.1049 9.4839 10.2122 9.36677L13.06 6.50439C13.1917 6.36774 13.2576 6.21401 13.2576 6.04319C13.2576 5.86262 13.1917 5.70888 13.06 5.58199L10.2122 2.69034C10.1 2.56345 9.95356 2.5 9.77298 2.5C9.60217 2.5 9.4582 2.56345 9.34107 2.69034C9.22394 2.81235 9.16537 2.95876 9.16537 3.12958C9.16537 3.21254 9.18001 3.29063 9.20929 3.36384C9.24346 3.43704 9.28738 3.50537 9.34107 3.56881L11.0834 5.29649C10.9223 5.26232 10.7491 5.23548 10.5636 5.21596C10.3782 5.19644 10.1854 5.18668 9.98528 5.18668C9.13609 5.18668 8.33814 5.34529 7.59143 5.66252C6.84961 5.97975 6.19807 6.41899 5.63682 6.98024C5.07557 7.54148 4.63633 8.19546 4.3191 8.94217C4.00188 9.68399 3.84326 10.4819 3.84326 11.336Z"
                    fill="black"
                  />
                </svg>