<svg
      width="21"
      height="21"
      viewBox="0 0 21 21"
      fill="none"
      xmlns="http://www.w3.org/2000/svg"
    >
      <path
        d="M18.3396 10.1351C18.3632 10.3622 18.375 10.5998 18.375 10.8504C18.375 12.5528 17.7817 13.6973 17.2069 14.4139C16.9748 14.7049 16.7091 14.9674 16.4154 15.1961C16.3162 15.2726 16.2127 15.3436 16.1057 15.4088L16.0939 15.4153C15.9898 15.4716 15.9029 15.555 15.8424 15.6567C15.7819 15.7584 15.7499 15.8745 15.75 15.9928V17.7188C15.75 17.8928 15.6809 18.0597 15.5578 18.1828C15.4347 18.3059 15.2678 18.375 15.0938 18.375H14.4375C14.4375 18.0269 14.2992 17.6931 14.0531 17.4469C13.8069 17.2008 13.4731 17.0625 13.125 17.0625H10.5C10.1519 17.0625 9.81806 17.2008 9.57192 17.4469C9.32578 17.6931 9.1875 18.0269 9.1875 18.375H8.53125C8.3572 18.375 8.19028 18.3059 8.06721 18.1828C7.94414 18.0597 7.875 17.8928 7.875 17.7188V16.9273C7.87516 16.7645 7.81481 16.6075 7.70566 16.4867C7.59651 16.3659 7.44636 16.29 7.28438 16.2737C7.07641 16.2285 6.87268 16.1657 6.67537 16.086C6.15202 15.8748 5.67727 15.5591 5.28019 15.1581C4.69875 14.5674 4.34306 13.7904 4.15144 13.251C3.96375 12.7142 3.53325 12.2286 2.91769 12.0553C2.83345 12.0314 2.75932 11.9806 2.7065 11.9107C2.65369 11.8409 2.62508 11.7557 2.625 11.6681V10.626C2.62493 10.5433 2.65179 10.4628 2.70152 10.3968C2.75125 10.3307 2.82114 10.2826 2.90062 10.2598C3.53719 10.0774 3.96244 9.56288 4.14225 9.0195C4.28925 8.57325 4.54913 8.001 4.97175 7.57181C5.45591 7.08845 6.01531 6.68685 6.62813 6.38269C6.67931 6.35644 6.72 6.33806 6.74625 6.32625L6.7725 6.31313L6.77775 6.31181C6.89587 6.26118 6.99653 6.17697 7.06723 6.06964C7.13793 5.96231 7.17555 5.83659 7.17544 5.70806V3.51094C7.46736 3.75994 7.77418 3.99093 8.09419 4.20263C8.51025 4.47563 8.99588 4.73419 9.50381 4.872C9.65344 4.4415 9.85819 4.032 10.1128 3.654H10.1049C9.73875 3.61594 9.29119 3.41775 8.81213 3.10406C8.37312 2.80891 7.96034 2.47649 7.57838 2.1105C7.43564 1.97662 7.25726 1.88682 7.06471 1.8519C6.87215 1.81697 6.6736 1.83841 6.49294 1.91363C6.30762 1.98706 6.14856 2.11434 6.03627 2.27904C5.92398 2.44373 5.8636 2.63829 5.86294 2.83763V5.30119C5.19374 5.66189 4.57943 6.11622 4.03856 6.65044C3.4125 7.28306 3.07256 8.07319 2.89669 8.60738C2.82319 8.82656 2.67619 8.95913 2.53969 8.99719C2.18614 9.09839 1.87515 9.31195 1.65375 9.60558C1.43234 9.89921 1.31255 10.2569 1.3125 10.6247V11.6681C1.3125 12.4359 1.82306 13.1093 2.56069 13.3179C2.64462 13.3472 2.72047 13.3958 2.78205 13.4599C2.84363 13.524 2.88921 13.6017 2.91506 13.6868C3.13294 14.3063 3.56869 15.2919 4.34569 16.0794C4.96426 16.7047 5.72479 17.1712 6.5625 17.4392V17.7188C6.5625 18.2409 6.76992 18.7417 7.13913 19.1109C7.50835 19.4801 8.00911 19.6875 8.53125 19.6875H9.1875C9.5356 19.6875 9.86944 19.5492 10.1156 19.3031C10.3617 19.0569 10.5 18.7231 10.5 18.375H13.125C13.125 18.7231 13.2633 19.0569 13.5094 19.3031C13.7556 19.5492 14.0894 19.6875 14.4375 19.6875H15.0938C15.6159 19.6875 16.1167 19.4801 16.4859 19.1109C16.8551 18.7417 17.0625 18.2409 17.0625 17.7188V16.3498C17.5 16.0318 17.8929 15.6566 18.2306 15.2342C18.9683 14.3154 19.6875 12.8874 19.6875 10.8504C19.6875 9.99731 19.5667 9.23344 19.3331 8.55094C19.0992 9.13407 18.7627 9.6706 18.3396 10.1351ZM18.1007 5.08594C18.4288 5.8777 18.4897 6.75487 18.2741 7.58437C18.0586 8.41387 17.5784 9.15043 16.9063 9.68231C16.359 10.1141 15.6096 10.0813 14.9664 9.81356L11.8296 8.5155C11.1864 8.24906 10.6326 7.74244 10.5512 7.05075C10.4422 6.10734 10.6778 5.15631 11.2144 4.37281C11.7511 3.58932 12.5528 3.02611 13.4719 2.78692C14.391 2.54772 15.3655 2.64864 16.2161 3.0711C17.0667 3.49355 17.7359 4.20909 18.1007 5.08594ZM16.0926 8.652C16.4518 8.36814 16.7306 7.99529 16.9013 7.57045C17.0719 7.1456 17.1286 6.68352 17.0656 6.23002C17.0026 5.77653 16.8221 5.34738 16.5421 4.98515C16.2621 4.62291 15.8923 4.34017 15.4693 4.16497C15.0463 3.98976 14.5848 3.92819 14.1307 3.98634C13.6765 4.0445 13.2455 4.22037 12.8803 4.49651C12.5151 4.77265 12.2284 5.13947 12.0487 5.56057C11.869 5.98168 11.8025 6.44245 11.8558 6.89719C11.8584 6.92344 11.8689 6.972 11.9424 7.04944C12.0536 7.15971 12.1863 7.24594 12.3322 7.30275L15.4691 8.60213C15.6124 8.66611 15.7677 8.69877 15.9246 8.69794C16.0296 8.69531 16.0729 8.66775 16.0926 8.652ZM7.54688 9.84375C7.80795 9.84375 8.05833 9.74004 8.24293 9.55543C8.42754 9.37083 8.53125 9.12045 8.53125 8.85938C8.53125 8.5983 8.42754 8.34792 8.24293 8.16332C8.05833 7.97871 7.80795 7.875 7.54688 7.875C7.2858 7.875 7.03542 7.97871 6.85082 8.16332C6.66621 8.34792 6.5625 8.5983 6.5625 8.85938C6.5625 9.12045 6.66621 9.37083 6.85082 9.55543C7.03542 9.74004 7.2858 9.84375 7.54688 9.84375Z"
        fill="#1DCBEF"
        stroke="#1DCBEF"
        stroke-width="0.5"
      />
    </svg>