<svg xmlns="http://www.w3.org/2000/svg" enable-background="new 0 0 1024 1024" viewBox="0 0 1024 1024" id="signature-document">
  <g>
    <rect width="48" height="25" x="240" y="283.5"></rect>
    <rect width="304" height="25" x="320" y="283.5"></rect>
    <path d="M140.5 165.26c0-13.65 11.11-24.76 24.76-24.76h533.48c13.65 0 24.76 11.11 24.76 24.76V292h25V165.26c0-27.44-22.32-49.76-49.76-49.76H165.26c-27.44 0-49.76 22.32-49.76 49.76V512h25V165.26zM723.5 739.5h-94.24c-27.44 0-49.76 22.32-49.76 49.76v94.24H165.26c-13.65 0-24.76-11.11-24.76-24.76V560h-25v298.74c0 27.44 22.32 49.76 49.76 49.76H592c.06 0 .12-.01.18-.01.35 0 .7-.02 1.04-.05.2-.02.39-.06.58-.09.21-.03.42-.05.63-.09.2-.04.39-.1.59-.15.2-.05.4-.09.6-.15.18-.05.35-.12.52-.18.21-.07.42-.14.63-.23.14-.06.28-.13.43-.2.23-.1.46-.2.68-.32.13-.07.24-.15.37-.22.23-.13.46-.26.69-.41.13-.09.26-.19.39-.29.2-.15.41-.29.6-.44.32-.26.63-.54.92-.83l144-144c.27-.27.51-.54.75-.83.07-.08.14-.17.2-.26.17-.22.33-.44.49-.66.06-.09.12-.18.18-.27.19-.29.37-.59.53-.89.01-.02.02-.04.03-.06.17-.33.33-.66.47-1 .04-.09.08-.19.11-.29.1-.25.19-.51.28-.77.03-.1.07-.21.1-.31.1-.34.19-.68.26-1.02 0-.02.01-.03.01-.05.07-.36.12-.72.16-1.09.01-.1.02-.21.03-.31.02-.28.04-.57.04-.85 0-.06.01-.13.01-.19V596h-25V739.5z"></path>
    <rect width="224" height="25" x="240" y="439.5"></rect>
    <path d="M906.84 323.4c0-3.62-1.41-7.02-3.97-9.58l-31.86-31.86c-2.56-2.56-5.96-3.97-9.58-3.97-3.62 0-7.02 1.41-9.58 3.97l-19.06 19.06-1.98-1.98c-5.25-5.25-12.22-8.14-19.64-8.14s-14.39 2.89-19.64 8.13L530.82 559.78c-2.53 2.53-3.85 6.02-3.64 9.59l4.34 72.23c.38 6.31 5.41 11.35 11.73 11.73l72.23 4.34c.25.01.5.02.75.02 3.3 0 6.49-1.31 8.84-3.66l260.73-260.73c5.25-5.25 8.13-12.22 8.13-19.64s-2.89-14.39-8.13-19.64l-1.98-1.98 19.06-19.06C905.43 330.42 906.84 327.02 906.84 323.4zM611.36 632.37l-55.55-3.34-3.34-55.55 111.64-111.64L723 520.73 611.36 632.37zM868.12 375.62L740.68 503.06l-58.89-58.89 127.44-127.44c.67-.67 1.44-.81 1.96-.81.52 0 1.29.14 1.96.81l18.96 18.96-74.09 74.09 17.68 17.68 74.09-74.09 18.34 18.34c.67.67.81 1.44.81 1.96C868.93 374.18 868.79 374.95 868.12 375.62zM282.53 660c1.1-.06 4.87 2.02 7.22 6.25 3.12 5.62 4.57 13.41 6.1 21.66.44 2.38.89 4.76 1.37 7.13 6.09 29.83 18.99 58.46 37.3 82.79 4.41 5.86 11.67 8.83 18.92 7.76 7.25-1.08 13.33-6.04 15.85-12.92l3.91-10.7c3.94-.59 7.75-2.02 11.09-4.27 6.78-4.57 10.46-10.9 12.51-16.6.42.63.84 1.25 1.26 1.88 3.15 4.71 8.15 7.87 13.76 8.68 5.61.82 11.3-.8 15.66-4.42l85.7-71.35-25.59-30.74-68.82 57.29c-9.59-13.69-19.55-27.2-29.74-40.34-6.03-7.78-16.84-10.01-25.46-5.26-8.62 4.76-12.5 15.08-9.14 24.34 4 11.02 5.96 22.81 5.78 34.55-4.81.32-9.33 2.37-12.73 5.71-4.91-11.03-8.64-22.59-11.05-34.39-.43-2.13-.83-4.28-1.23-6.43-1.95-10.52-4.17-22.45-10.46-33.77-11.02-19.85-32.24-30.42-51.61-25.69-12.9 3.14-34.8 15.1-36.59 59.84-1.4 35.14.06 70.66 4.35 105.56l39.7-4.88c-4.03-32.76-5.4-66.1-4.08-99.08C277.13 666.37 281.42 660.27 282.53 660z"></path>
  </g>
</svg>
