<svg
      width="20"
      height="20"
      viewBox="0 0 20 20"
      fill="none"
      xmlns="http://www.w3.org/2000/svg"
    >
      <path
        d="M10.5 9.25H3.5C2.25736 9.25 1.25 10.2574 1.25 11.5V14.4656C1.25 15.0983 1.43625 15.6902 1.89599 16.1333C2.35073 16.5746 2.94737 16.75 3.58261 16.75H10.413C11.0498 16.75 11.6485 16.5754 12.104 16.1334C12.5637 15.6902 12.75 15.0984 12.75 14.4656V11.5C12.75 10.2574 11.7426 9.25 10.5 9.25Z"
        stroke="black"
        stroke-width="1.5"
      />
      <path
        d="M4.45486 14.2695C4.24081 14.2695 4.06591 14.2041 3.93017 14.0733C3.79443 13.9372 3.72656 13.7645 3.72656 13.5552V12.1816C3.72656 11.9723 3.79443 11.8022 3.93017 11.6714C4.06591 11.5353 4.24081 11.4673 4.45486 11.4673H6.2717C6.49097 11.4673 6.66587 11.5353 6.79639 11.6714C6.93213 11.8022 7 11.9723 7 12.1816V13.5552C7 13.7645 6.93213 13.9372 6.79639 14.0733C6.66587 14.2041 6.49097 14.2695 6.2717 14.2695H4.45486Z"
        fill="black"
      />
      <path
        d="M17.4142 4.58579C17.0391 4.21071 16.5304 4 16 4H8C7.33333 4 6 4.3 6 5.5H16C16.2761 5.5 16.5 5.72386 16.5 6V12C17.0304 12 17.0391 11.7893 17.4142 11.4142C17.7893 11.0391 18 10.5304 18 10V6C18 5.46957 17.7893 4.96086 17.4142 4.58579Z"
        fill="black"
      />
      <path
        d="M15.4142 6.58579C15.0391 6.21071 14.5304 6 14 6H6C5.33333 6 4 6.3 4 7.5H14C14.2761 7.5 14.5 7.72386 14.5 8V14C15.0304 14 15.0391 13.7893 15.4142 13.4142C15.7893 13.0391 16 12.5304 16 12V8C16 7.46957 15.7893 6.96086 15.4142 6.58579Z"
        fill="black"
      />
    </svg>