
<svg width="270" height="264" viewBox="0 0 270 264" fill="none" xmlns="http://www.w3.org/2000/svg">
<circle cx="138" cy="132" r="132" fill="#F9F9F9"/>
<path d="M172.363 200.572C178.143 201.309 184.231 200.802 189.393 198.101C195.965 194.661 199.253 188.355 199.389 181.1C199.488 175.845 198.47 170.366 195.298 166.175C191.848 161.618 186.066 158.816 183.921 153.519C182.532 150.088 182.865 145.417 185.612 142.763C187.361 141.073 188.729 139.168 188.505 136.635C188.174 132.908 185.448 129.328 182.403 127.315C177.938 124.364 172.383 123.284 167.158 122.62C163.619 122.17 160.093 121.176 158.997 117.364C158.407 115.307 158.524 113.138 158.413 111.025C158.178 106.519 157.847 102.012 157.175 97.5475C156.399 92.4008 153.056 87.4225 149.329 83.8759C148.794 83.3667 148.238 82.8791 147.663 82.4141C138.054 74.6291 120.266 71.871 109.666 79.0859C106.052 81.5458 103.52 85.3107 102.715 89.6143C102.177 92.4905 101.397 93.1098 98.5877 93.9819C93.4827 95.5661 87.689 96.6908 83.6345 100.435C80.463 103.364 79.0049 107.799 79.4268 112.055C79.9655 117.488 83.7642 120.086 86.4837 124.393C89.2603 128.788 87.0771 134.319 83.8522 137.946C81.3683 140.739 77.8445 142.78 76.4417 146.244C75.1509 149.432 76.0057 153.116 77.5646 156.182C78.1962 157.424 78.9397 158.61 79.4981 159.887C81.5617 166.175 70.4082 174.636 81.5617 183.645" fill="black"/>
<path d="M105.891 84.9673C108.69 83.3321 111.943 82.5824 115.176 82.4533C118.42 82.3291 121.67 82.7466 124.82 83.5301C131.136 85.1204 136.889 88.8798 140.901 94.0505C142.884 96.6506 144.418 99.6087 145.329 102.765C146.243 105.93 146.43 109.24 146.392 112.478C146.36 115.723 146.129 118.95 146.236 122.143C146.303 123.727 146.499 125.31 146.982 126.789C147.456 128.262 148.279 129.621 149.496 130.509C150.697 131.42 152.24 131.805 153.799 131.992C155.363 132.178 156.996 132.187 158.626 132.405C161.852 132.839 165.133 133.606 167.944 135.456C169.325 136.379 170.567 137.665 171.172 139.288C171.798 140.911 171.672 142.684 171.253 144.301C170.765 145.937 169.838 147.309 169.193 148.739C168.546 150.171 168.131 151.712 167.991 153.281C167.693 156.439 168.503 159.604 169.626 162.6C170.729 165.619 172.054 168.595 172.827 171.767C173.205 173.35 173.437 174.98 173.41 176.614C173.391 178.247 173.093 179.873 172.561 181.409C171.499 184.485 169.499 187.213 166.911 189.147C169.453 187.153 171.371 184.394 172.346 181.337C173.368 178.275 173.232 174.955 172.389 171.877C171.581 168.771 170.234 165.831 169.08 162.804C167.909 159.797 167.015 156.541 167.284 153.221C167.41 151.571 167.824 149.942 168.487 148.423C169.161 146.91 170.061 145.559 170.487 144.077C170.862 142.583 170.962 140.993 170.406 139.58C169.873 138.162 168.767 137.01 167.476 136.156C164.857 134.439 161.658 133.685 158.52 133.282C156.945 133.076 155.338 133.076 153.693 132.89C152.069 132.701 150.347 132.303 148.946 131.25C147.539 130.215 146.627 128.658 146.125 127.07C145.611 125.471 145.419 123.814 145.356 122.177C145.261 118.909 145.509 115.682 145.554 112.468C145.605 109.261 145.432 106.044 144.561 102.982C143.683 99.9272 142.233 97.0412 140.337 94.4785C136.495 89.3859 130.9 85.6204 124.706 83.9649C121.613 83.1181 118.399 82.6292 115.182 82.6777C111.976 82.7319 108.728 83.3979 105.891 84.9673Z" fill="#DCFFEC"/>
<path d="M153.8 162.054C154.1 169.359 152.407 174.845 145.727 178.458C140.406 181.335 134.035 182.279 128.163 182.424C118.315 182.667 107.342 180.127 99.9762 173.21C98.6393 171.954 97.3564 170.415 97.2599 168.584C97.1719 166.919 98.0876 165.35 98.1688 163.686C98.3047 160.877 96.1215 158.551 95.1456 155.914C93.8566 152.431 94.7329 148.544 95.8909 145.015C97.0489 141.487 98.4984 137.925 98.3244 134.216C98.0987 129.404 95.2077 125.203 92.8929 120.979C90.5781 116.755 88.756 111.616 90.7343 107.224C92.0375 104.33 95.1468 102.104 98.3232 101.752C101.679 101.38 104.694 105.214 106.844 107.327C109.737 110.169 112.959 112.676 116.426 114.779C121.221 117.689 126.485 119.835 130.996 123.17C133.726 125.187 136.653 127.957 137.956 131.171C139.425 134.793 136.853 138.299 139.962 141.63C141.967 143.779 145.048 144.51 147.473 146.172C152.664 149.73 153.563 156.287 153.8 162.054Z" fill="black"/>
<path d="M99.4138 202.927C106.328 192.272 110.631 179.195 104.623 167.165C104.014 165.945 103.281 164.615 101.988 164.185C99.2066 163.26 95.4337 164.255 93.015 165.674C84.6255 170.596 79.4916 179.859 74.7784 188.1C69.882 196.663 65.6294 205.575 60.7084 214.124C58.7152 217.586 56.7024 221.095 55.6336 224.944C54.697 228.316 54.5949 232.177 55.8722 235.476C61.3959 249.74 76.5846 232.268 81.208 226.99C87.8055 219.457 93.9664 211.327 99.4138 202.927Z" fill="#D8F8FF"/>
<path d="M161.975 191.004C163.962 182.588 164.992 173.979 160.488 168.246C158.454 165.657 154.831 163.854 151.865 162.572C146.08 160.072 140.166 156.711 133.974 155.621C127.445 154.472 120.184 153.764 113.678 155.407C109.545 156.451 105.679 158.382 101.983 160.466C98.7766 162.274 94.8426 163.83 93.2855 167.196C89.5132 175.349 86.1653 183.854 83.3881 192.396C81.0647 199.543 78.5144 207.034 82.1753 214.278C83.3616 216.625 85.0848 218.633 86.4414 220.876C87.953 223.374 88.517 225.72 88.715 228.602C89.167 235.176 88.9911 241.77 88.9727 248.353C88.9671 250.251 88.9923 252.223 89.8232 253.929C91.4609 257.292 95.9121 257.339 99.1179 257.333C109.685 257.315 120.253 257.297 130.821 257.279C135.218 257.271 138.577 257.809 142.704 258.658C146.178 259.372 149.16 257.619 150.827 254.387C152.404 251.327 152.525 247.754 152.694 244.316C153.352 230.937 155.25 217.621 158.356 204.592C159.234 200.902 160.777 196.077 161.975 191.004Z" fill="#40196D"/>
<path d="M137.499 166.525C139.987 162.34 140.552 157.112 137.293 153.08C135.803 151.236 133.168 151.03 130.915 150.988C126.48 150.905 122.034 151.376 117.714 152.387C113.597 153.35 109.399 154.981 107.616 159.138C106.291 162.227 106.754 165.8 108.499 168.625C110.084 171.191 112.714 173.091 115.649 173.789C120.387 174.917 125.933 174.766 130.454 172.868C133.287 171.679 135.827 169.338 137.499 166.525Z" fill="#D8F8FF"/>
<path d="M165.716 229.59C165.684 223.137 165.651 216.684 165.618 210.231C165.607 207.984 167.065 194.31 163.571 194.465C163.194 194.482 162.849 194.676 162.542 194.896C160.803 196.139 159.91 198.222 159.097 200.199C156.55 206.398 154.411 216.321 149.109 220.661C143.72 225.072 135.433 226.932 128.736 227.991C120.914 229.227 112.965 229.319 105.062 229.8C99.9493 230.111 94.3087 230.847 90.9503 234.714C88.5519 237.475 87.3312 241.615 86.0502 244.989C84.9309 247.937 84.0398 251.44 86.3109 254.111C87.2801 255.25 88.6251 255.998 89.978 256.636C94.9101 258.961 100.302 260.133 105.68 261.033C120.732 263.552 136.073 264.076 151.317 263.349C154.576 263.194 158.11 262.87 160.514 260.663C162.302 259.022 163.146 256.606 163.745 254.253C165.788 246.238 165.758 237.861 165.716 229.59Z" fill="#40196D"/>
<path d="M93.6479 119.383C87.8819 125.316 93.1123 139.813 102.308 137.715C112.19 135.46 110.703 120.062 101.767 117.534C98.283 116.548 95.5039 117.474 93.6479 119.383Z" fill="#FFC83E"/>
<path d="M190.508 210.629C192.276 213.818 194.033 217.011 195.757 220.225C199.258 226.748 205.758 241.241 195.352 244.821C190.109 246.625 187.11 244.861 183.644 241.042C170.533 226.591 159.353 210.394 150.494 193.014C147.196 186.545 138.441 169.688 149.076 165.836C152.433 164.62 156.304 164.903 159.45 166.595C160.888 167.368 162.163 168.41 163.382 169.498C171.057 176.342 176.522 185.173 181.384 194.13C184.389 199.665 187.465 205.139 190.508 210.629Z" fill="#D8F8FF"/>
<path d="M128.497 168.658C131.663 167.642 134.271 165.673 135.248 162.544C136.135 159.704 134.737 156.51 134.488 153.644C134.249 150.898 134.218 148.136 134.399 145.386C134.565 142.844 134.808 140.196 134.418 137.661C134.196 136.213 133.4 136.461 131.936 135.885C130.471 135.31 128.827 135.305 127.235 135.309C123.975 135.317 115.478 135.08 113.463 137.941C112.539 139.254 112.466 140.906 112.422 142.469C112.369 144.357 112.034 146.801 111.725 149.435C111.587 150.607 111.672 151.775 111.492 152.939C111.291 154.243 110.796 155.493 110.363 156.742C108.723 161.465 110.258 165.957 115.366 168.119C119.031 169.671 124.263 170.016 128.497 168.658Z" fill="#D5AFFD"/>
<path d="M134.395 137.661C134.173 136.213 133.378 136.461 131.913 135.885C130.449 135.31 128.805 135.305 127.212 135.309C123.952 135.317 115.455 135.08 113.441 137.941C112.516 139.254 112.443 140.906 112.399 142.469C112.346 144.357 112.012 146.801 111.702 149.435C111.565 150.607 111.649 151.775 111.47 152.939C111.317 153.932 110.993 154.893 110.656 155.847C113.816 157.02 117.385 157.282 120.681 156.471C126.619 155.009 131.117 151.313 134.324 146.507C134.34 146.133 134.351 145.76 134.376 145.386C134.543 142.844 134.786 140.195 134.395 137.661Z" fill="#40196D" fill-opacity="0.44"/>
<path d="M139.129 119.054C139.103 114.701 138.503 110.572 137.383 107.144C132.551 92.3505 114.097 88.6963 102.985 99.3145C90.5927 111.157 95.3348 139.469 108.388 149.415C111.878 152.075 116.62 153.009 120.859 151.872C133.682 148.433 139.21 132.652 139.129 119.054Z" fill="#D5AFFD"/>
<path d="M116.976 148.903C114.539 147.775 113.854 146.935 110.414 147.437C105.931 148.222 107.6 143.681 109.985 141.878C113.177 139.461 117.188 140.555 119.613 142.828C121.987 145.052 121.031 150.736 116.976 148.903Z" fill="white"/>
<path d="M136.705 119.421C142.383 116.317 144.131 124.177 143.153 128.089C142.75 129.705 142.112 131.281 141.109 132.61C139.759 134.4 135.895 137.37 133.67 135.412C132.66 134.523 132.556 133.013 132.525 131.668C132.442 128.062 132.857 121.525 136.705 119.421Z" fill="#F8A17A"/>
<path d="M118.212 145.312C116.82 145.312 115.418 145.209 114.016 145.002L114.267 143.3C119.362 144.051 124.444 143.341 128.962 141.247C130.19 140.679 131.229 140.081 132.142 139.42C133.801 138.218 135.226 136.648 136.261 134.88L137.746 135.749C136.592 137.722 135.003 139.474 133.152 140.814C132.149 141.541 131.015 142.193 129.686 142.809C126.109 144.466 122.204 145.312 118.212 145.312Z" fill="#40196D"/>
<path d="M110.813 142.655C112.414 141.281 115.974 141.399 117.148 142.826C118.018 143.883 117.752 145.225 116.795 146.118C115.662 147.176 114.26 147.114 112.847 146.795C111.077 146.397 108.884 144.311 110.813 142.655Z" fill="#40196D"/>
<path d="M139.157 107.754C134.07 92.1786 114.641 88.3313 102.942 99.511C100.357 101.981 98.491 105.137 97.25 108.683C97.5108 109.087 97.8029 109.491 98.1522 109.897C99.7573 111.756 101.973 112.971 104.202 114.002C110.716 117.013 117.735 118.779 124.787 120.101C125.307 120.198 125.83 120.294 126.351 120.397C128.293 120.781 130.22 121.259 131.915 122.258C136.708 125.084 134.647 131.297 138.158 134.02C138.476 134.267 138.797 134.426 139.118 134.539C140.415 129.901 141.023 124.975 140.995 120.294C140.968 115.71 140.336 111.363 139.157 107.754Z" fill="#A476D4"/>
<path d="M126.849 118.617C128.704 119.305 130.531 120.085 132.045 121.342C136.325 124.895 133.3 130.701 136.332 133.949C139.018 136.827 143.098 133.024 144.166 130.366C146.135 125.469 146.019 120.019 145.874 114.743C145.793 111.801 145.706 108.817 144.843 106.002C143.902 102.932 142.069 100.193 139.887 97.8386C133.586 91.0394 124.076 87.5051 114.87 88.085C107.671 88.5383 95.0402 94.5884 100.685 103.755C101.973 105.846 103.967 107.398 106.003 108.772C111.953 112.783 118.601 115.646 125.352 118.076C125.849 118.255 126.351 118.433 126.849 118.617Z" fill="black"/>
<path d="M139.086 117.184C131.072 119.239 127.975 134.336 136.915 137.342C146.521 140.571 153.284 126.657 146.978 119.84C144.519 117.181 141.665 116.523 139.086 117.184Z" fill="#FFC83E"/>
<path d="M141.712 119.122C136.179 120.011 132.772 131.764 138.473 134.998C144.6 138.474 150.349 128.008 146.745 121.98C145.339 119.629 143.492 118.836 141.712 119.122Z" fill="#40196D"/>
<path d="M142.83 118.24L140.693 117.993C142.143 105.463 141.525 89.4544 130.35 84.3408C125.057 81.9196 109.901 79.2328 103.23 88.2342C102.428 89.1352 101.891 89.891 101.891 89.891C106.027 77.1265 125.532 79.7703 131.245 82.384C143.595 88.035 144.362 105.002 142.83 118.24Z" fill="#37BE77"/>
<path d="M130.299 236.169H86.5547V244.733H130.299V236.169Z" fill="#0A0214"/>
<path d="M94.059 236.999L83.0189 180.794C82.7274 179.309 81.4255 178.238 79.9127 178.238H6.52065C5.45797 178.238 4.5478 178.764 3.9771 179.543L3.96727 179.534L0.578125 183.541L3.58475 182.881L14.4545 238.219C14.746 239.703 16.0473 240.774 17.5607 240.774H90.9534C92.9465 240.775 94.4433 238.955 94.059 236.999Z" fill="#0A0214"/>
<path d="M14.2066 244.734H87.5993C89.5924 244.734 91.0892 242.914 90.7055 240.959L79.6654 184.753C79.3739 183.269 78.072 182.198 76.5592 182.198H3.16654C1.1734 182.198 -0.323457 184.018 0.0602888 185.974L11.1004 242.179C11.3925 243.663 12.6938 244.734 14.2066 244.734Z" fill="#0A0214"/>
<path d="M37.291 212.072C37.9681 215.863 41.5903 218.937 45.3817 218.937C49.173 218.937 51.6538 215.863 50.9226 212.072C50.1914 208.281 46.5692 205.207 42.832 205.207C39.0948 205.208 36.6139 208.281 37.291 212.072Z" fill="#0A0214"/>
<path d="M137.559 231.754C138.454 231.602 139.35 231.453 140.249 231.313C144.615 230.627 148.964 229.814 153.288 228.874C161.851 227.012 170.465 225.413 179.182 224.587C180.106 224.5 181.031 224.421 181.956 224.351C185.864 224.056 189.959 223.96 193.537 225.828C197.115 227.697 199.96 232.118 199.086 236.38C198.472 239.374 196.183 241.628 193.639 242.764C191.095 243.9 188.293 244.098 185.546 244.283C176.646 244.882 167.745 245.481 158.844 246.081C154.437 246.375 150.031 246.679 145.624 246.985C141.416 247.278 137.144 247.872 132.925 247.868C131.14 247.866 129.147 247.531 127.648 246.34C125.563 244.685 124.308 241.16 124.106 238.406C124.002 236.975 124.28 235.239 125.376 234.354C125.963 233.879 126.708 233.735 127.426 233.603C130.808 232.981 134.175 232.332 137.559 231.754Z" fill="#1DC8EF"/>
<path d="M127.57 245.316C125.417 245.76 123.735 247.651 121.594 248.283C120.065 248.735 118.429 248.494 116.96 247.943C115.609 247.436 114.235 247.165 112.849 246.721C111.769 246.375 110.309 245.646 109.149 245.888C106.107 246.522 103.072 248.687 100.314 250.092C99.6942 250.408 99.0146 250.733 98.3308 250.604C97.6469 250.474 97.0768 249.645 97.4655 249.068C96.6722 249.809 95.6218 251.292 94.3414 250.717C93.8181 250.482 93.502 249.788 93.7922 249.293C93.3525 249.776 92.8901 250.274 92.2831 250.514C91.6755 250.754 90.8791 250.65 90.5212 250.103C90.3527 249.846 90.3022 249.53 90.2869 249.222C90.2346 248.167 90.5532 247.123 90.9935 246.162C93.1656 241.422 98.0774 237.905 102.257 235.081C102.997 234.582 103.75 234.075 104.604 233.815C105.367 233.582 106.177 233.556 106.976 233.552C112.159 233.528 117.345 234.366 122.256 236.021C123.319 236.379 124.489 236.074 125.549 235.876C126.334 235.729 127.153 235.584 127.919 235.807C128.776 236.058 129.441 236.737 129.963 237.462C130.924 238.794 131.658 240.558 131.543 242.232C131.457 243.503 131.36 244.874 129.864 245.141C129.258 245.249 128.634 245.182 128.022 245.246C127.869 245.261 127.719 245.285 127.57 245.316Z" fill="#D5AFFD"/>
<rect x="112.852" y="122.397" width="0.627776" height="8.57961" rx="0.313888" transform="rotate(0.848937 112.852 122.397)" fill="#40196D"/>
<rect x="103.578" y="120.725" width="1.04629" height="3.13888" rx="0.418518" fill="#40196D"/>
<rect x="120.742" y="120.725" width="1.04629" height="3.13888" rx="0.418518" fill="#40196D"/>
<path d="M184.045 74.7119C167.922 83.635 161.29 102.997 167.985 119.521L162.126 127.727L172.18 127.101C182.637 141.567 202.574 146.2 218.678 137.288C236.075 127.659 242.444 105.843 232.872 88.5479C223.292 71.2814 201.442 65.0831 184.045 74.7119Z" fill="#F7685B"/>
<path d="M202.889 91.4454C202.889 90.0954 201.794 89.001 200.444 89.001V89.001C199.094 89.001 198 90.0954 198 91.4454L198 111.699C198 113.049 199.094 114.144 200.444 114.144V114.144C201.794 114.144 202.889 113.049 202.889 111.699L202.889 91.4454Z" fill="white"/>
<rect x="198" y="119.312" width="4.88889" height="4.88889" rx="2.44444" fill="white"/>
</svg>
